<svg xmlns="http://www.w3.org/2000/svg" viewBox="0 0 512 512">
  <defs>
    <linearGradient id="grad1" x1="0%" y1="0%" x2="0%" y2="100%">
      <stop offset="0%" style="stop-color:#40a9ff;stop-opacity:1" />
      <stop offset="100%" style="stop-color:#096dd9;stop-opacity:1" />
    </linearGradient>
    <filter id="shadow" x="-20%" y="-20%" width="140%" height="140%">
      <feDropShadow dx="0" dy="4" stdDeviation="4" flood-color="#000" flood-opacity="0.25"/>
    </filter>
  </defs>
  
  <!-- Guitar Pick Body -->
  <path fill="url(#grad1)" filter="url(#shadow)" d="M 256 32 C 150 32 64 80 64 192 C 64 288 128 400 256 480 C 384 400 448 288 448 192 C 448 80 362 32 256 32 Z"/>
  
  <!-- Musical Note (Beamed Eighth Notes) - Moved Up -->
  <!-- Previous: translate(110, 110) -->
  <!-- New: translate(110, 80) -->
  <path fill="#ffffff" transform="translate(110, 80) scale(0.6)" d="M460 60 L 160 140 L 160 380 C 160 415 130 440 100 440 C 65 440 40 415 40 380 C 40 345 70 320 100 320 C 115 320 130 325 140 335 L 140 180 L 420 110 L 420 320 C 420 355 390 380 360 380 C 325 380 300 355 300 320 C 300 285 330 260 360 260 C 375 260 390 265 400 275 L 400 60 L 460 60 Z"/>
</svg>
